# xmcd
#
# Track frame offsets: 
#        150
#        16464
#        45927
#        62598
#        91942
#        115366
#        133103
#        161583
#        180970
#        218855
#        251629
#        269605
#        280310
#        294768
#
# Disc length: 4135 seconds
#
# Revision: 0
# Processed by: cddbd v1.5.2PL0 Copyright (c) Steve Scherf et al.
# Submitted via: ExactAudioCopy v1.0b3
#
DISCID=c510250e
DTITLE=INXS - INXS KICK 30 CD3 Additional Mixes and B-Sides
DYEAR=2017
DGENRE=Rock
TTITLE0=Never Tear Us Apart (Soul Version)
TTITLE1=New Sensation (Nick 12" Mix)
TTITLE2=New Sensation (Nick 7" Mix)
TTITLE3=Devil Inside (Extended Remix)
TTITLE4=Devil Inside (7" Version)
TTITLE5=Devil Inside (Radio Edit)
TTITLE6=Different World (12" Version)
TTITLE7=Different World (7" Version)
TTITLE8=Need You Tonight (Big Bump Mix)
TTITLE9=Need You Tonight (Ben Liebrand Mix)
TTITLE10=Need You Tonight (Mendelsohn 7" Edit)
TTITLE11=Guns In The Sky (Kookaburra Mix)
TTITLE12=Calling All Nations (Kids On Bridge Remix)
TTITLE13=Shine Like It Does (Live)
EXTD=
EXTT0=
EXTT1=
EXTT2=
EXTT3=
EXTT4=
EXTT5=
EXTT6=
EXTT7=
EXTT8=
EXTT9=
EXTT10=
EXTT11=
EXTT12=
EXTT13=
PLAYORDER=
